<svg width="20" height="20" viewBox="0 0 20 20" fill="none" xmlns="http://www.w3.org/2000/svg">
<path d="M17.5 3.33333V7.5C17.5 7.96 17.1275 8.33333 16.6667 8.33333C16.2058 8.33333 15.8333 7.96 15.8333 7.5V5.34505L9.75586 11.4225C9.59336 11.585 9.38 11.6667 9.16667 11.6667C8.95333 11.6667 8.73997 11.585 8.57747 11.4225C8.25164 11.0967 8.25164 10.57 8.57747 10.2441L14.6549 4.16667H12.5C12.0392 4.16667 11.6667 3.79333 11.6667 3.33333C11.6667 2.87333 12.0392 2.5 12.5 2.5H16.6667C16.775 2.5 16.8834 2.52242 16.9851 2.56409C17.1892 2.64825 17.3517 2.81077 17.4359 3.01493C17.4784 3.1166 17.5 3.225 17.5 3.33333ZM16.6667 10C16.2058 10 15.8333 10.3733 15.8333 10.8333V14.1667C15.8333 15.3658 15.3658 15.8333 14.1667 15.8333H5.83333C4.63417 15.8333 4.16667 15.3658 4.16667 14.1667V5.83333C4.16667 4.63417 4.63417 4.16667 5.83333 4.16667H9.16667C9.6275 4.16667 10 3.79333 10 3.33333C10 2.87333 9.6275 2.5 9.16667 2.5H5.83333C3.715 2.5 2.5 3.715 2.5 5.83333V14.1667C2.5 16.285 3.715 17.5 5.83333 17.5H14.1667C16.285 17.5 17.5 16.285 17.5 14.1667V10.8333C17.5 10.3733 17.1275 10 16.6667 10Z" fill="white"/>
</svg>
